<svg xmlns="http://www.w3.org/2000/svg" width="36" height="35.999" viewBox="0 0 36 35.999"><path d="M35.3,36H21.164a.7.7,0,0,1,0-1.406h13.43v-.7a.7.7,0,0,0-.7-.7H2.11a.7.7,0,0,0-.7.7v.7h13.43a.7.7,0,0,1,0,1.406H.7a.7.7,0,0,1-.7-.7V33.89a2.112,2.112,0,0,1,2.11-2.109H3.235V29.671a.7.7,0,0,1,.7-.7h.7V18.281h-.7a.7.7,0,0,1-.7-.7V15.469H2.11a.7.7,0,0,1-.7-.7V12.656H.7a.7.7,0,0,1-.419-1.268L15.472.138A.7.7,0,0,1,15.89,0H20.11a.7.7,0,0,1,.419.138l15.187,11.25a.7.7,0,0,1-.419,1.268h-.7v2.109a.7.7,0,0,1-.7.7H32.766v2.109a.7.7,0,0,1-.7.7h-.7V28.968h.7a.7.7,0,0,1,.7.7v2.109H33.89A2.112,2.112,0,0,1,36,33.89V35.3A.7.7,0,0,1,35.3,36Zm-13.36-4.222h.283v0h2.109V29.671a.7.7,0,0,1,.7-.7h.7V18.281h-.7a.7.7,0,0,1-.7-.7V15.469H11.672v2.109a.7.7,0,0,1-.7.7h-.7V28.968h.7a.7.7,0,0,1,.7.7v2.109H21.937v0Zm3.8-1.4v1.406h5.624V30.375Zm-21.094,0v1.406h5.625V30.375Zm22.5-12.094V28.968h2.812V18.281Zm-21.094,0V28.968H8.859V18.281Zm19.688-2.812v1.406h5.624V15.469Zm-21.094,0v1.406h5.625V15.469ZM2.813,12.656v1.407H33.187V12.656Zm13.31-11.25L2.834,11.25H33.166L19.877,1.406Z" transform="translate(0 0)" fill="#ff6c9c"/><path d="M247.465,492.732a.732.732,0,1,1-.732-.732A.732.732,0,0,1,247.465,492.732Zm0,0" transform="translate(-228.732 -457.465)" fill="#ff6c9c"/><path d="M218.93,50a2.93,2.93,0,1,0,2.93,2.93A2.933,2.933,0,0,0,218.93,50Zm0,4.395a1.465,1.465,0,1,1,1.465-1.465A1.467,1.467,0,0,1,218.93,54.395Zm0,0" transform="translate(-200.93 -46.338)" fill="#ff6c9c"/></svg>