<svg xmlns="http://www.w3.org/2000/svg" width="36" height="36" viewBox="0 0 36 36"><g transform="translate(0)"><path d="M35.264,11.619,32.771,9.175a2.373,2.373,0,0,0-.446-2.8L29.913,4.011a2.463,2.463,0,0,0-1.736-.7,2.49,2.49,0,0,0-1.122.264L24.563,1.13a2.6,2.6,0,0,0-3.622,0L18.334,3.685,15.322.733a2.6,2.6,0,0,0-3.621,0L1.726,10.511a5.673,5.673,0,0,0-.014,8.113l.014.014L12.573,29.271a.744.744,0,0,0,.113.091,5.961,5.961,0,0,0,8.2-.1l14.381-14.1A2.476,2.476,0,0,0,35.264,11.619ZM27.5,5.05l0,0a.973.973,0,0,1,1.349,0l2.411,2.364a.926.926,0,0,1,0,1.326L29.155,10.8h0v0l-2.712,2.658a.973.973,0,0,1-1.349,0l-1.071-1.05L22.68,11.1a.925.925,0,0,1,0-1.326Zm6.7,9.078-14.38,14.1a4.437,4.437,0,0,1-6.179,0,.748.748,0,0,0-.1-.085L2.8,17.614,2.788,17.6a4.225,4.225,0,0,1,0-6.053L12.763,1.77a1.08,1.08,0,0,1,1.5,0l3.013,2.954L6.55,15.236h0a.958.958,0,0,1-.675.274h0a.958.958,0,0,1-.675-.274.926.926,0,0,1,0-1.326.751.751,0,0,0,.076-.089l6.645-6.5a.723.723,0,0,0,0-1.038.762.762,0,0,0-1.061,0L4.138,12.859a.736.736,0,0,0-.091.109,2.373,2.373,0,0,0,.091,3.306,2.464,2.464,0,0,0,1.736.7h0a2.465,2.465,0,0,0,1.733-.7l0,0L18.865,5.243,22,2.167a1.08,1.08,0,0,1,1.5,0l2.41,2.363-1.05,1.029L23.282,4.011a.762.762,0,0,0-1.062,0L19.913,6.273a.723.723,0,0,0,0,1.038.762.762,0,0,0,1.061,0l1.777-1.742L23.8,6.6l-2.183,2.14a2.374,2.374,0,0,0,0,3.4L23,13.491,24.029,14.5a2.5,2.5,0,0,0,3.473,0l2.182-2.139,1.05,1.029-1.779,1.744a.723.723,0,0,0,0,1.038.762.762,0,0,0,1.061,0l2.308-2.262a.723.723,0,0,0,0-1.037l-1.581-1.549,1.05-1.029L34.2,12.657A1.027,1.027,0,0,1,34.2,14.129Z" transform="translate(-0.012)" fill="#8fbe0a"/><path d="M345.383,130.763a1.968,1.968,0,1,0-2.781,0A1.972,1.972,0,0,0,345.383,130.763Z" transform="translate(-318.363 -118.587)" fill="#8fbe0a"/><path d="M217.183,121.168l-2.663,2.667a.865.865,0,0,0,1.225,1.223l2.662-2.667a.865.865,0,1,0-1.225-1.223Z" transform="translate(-199.476 -112.567)" fill="#8fbe0a"/><path d="M151.535,186.921l-2.663,2.667a.865.865,0,1,0,1.225,1.223l2.663-2.667a.865.865,0,0,0-1.225-1.223Z" transform="translate(-138.359 -173.781)" fill="#8fbe0a"/><path d="M345.768,249.962l-2.663,2.667a.865.865,0,1,0,1.225,1.223l2.663-2.667a.865.865,0,0,0-1.225-1.223Z" transform="translate(-319.183 -232.47)" fill="#8fbe0a"/><path d="M280.121,315.719l-2.663,2.667a.865.865,0,1,0,1.225,1.223l2.663-2.667a.865.865,0,0,0-1.225-1.223Z" transform="translate(-258.069 -293.687)" fill="#8fbe0a"/><path d="M156.812,490.667H139.507a.865.865,0,1,0,0,1.73h17.305a.865.865,0,1,0,0-1.73Z" transform="translate(-130.161 -456.397)" fill="#8fbe0a"/><path d="M177.272,60.112a.863.863,0,0,0,.612-.254l.4-.4a.865.865,0,0,0-1.224-1.223l-.4.4a.865.865,0,0,0,.612,1.477Z" transform="translate(-164.106 -53.279)" fill="#8fbe0a"/></g></svg>