<svg xmlns="http://www.w3.org/2000/svg" width="36" height="36" viewBox="0 0 36 36"><path d="M36.062,30.925l-5.113-5.1a9.4,9.4,0,0,0,.752-2.85,9.57,9.57,0,0,0-2.18-7.05,9.133,9.133,0,0,0-3.308-2.55v-3.9a3.35,3.35,0,0,0-3.384-3.3H20.8V5.125A2.037,2.037,0,0,0,18.693,3.1H16.438A2.979,2.979,0,0,0,13.656,1a2.935,2.935,0,0,0-2.782,2.025H8.618a2.148,2.148,0,0,0-2.105,2.1v1.05H4.483A3.35,3.35,0,0,0,1.1,9.475V33.7A3.3,3.3,0,0,0,4.483,37H22.829a3.365,3.365,0,0,0,3.383-3.375v-2.4l4.737,4.725a3.568,3.568,0,0,0,5.038,0A3.483,3.483,0,0,0,36.062,30.925Zm-7.669-14.1A8.15,8.15,0,0,1,25.235,29.5H25.16a8.427,8.427,0,0,1-3.91.6,8.114,8.114,0,0,1-7.293-8.925,8.317,8.317,0,0,1,2.707-5.325l.075-.075a8.12,8.12,0,0,1,8.5-1.35h0A9.808,9.808,0,0,1,28.393,16.825ZM8.017,5.125a.581.581,0,0,1,.6-.525H11.55a.709.709,0,0,0,.752-.75,1.285,1.285,0,0,1,1.353-1.275A1.4,1.4,0,0,1,15.084,3.85a.709.709,0,0,0,.752.75h2.932a.581.581,0,0,1,.6.525v3.6a.581.581,0,0,1-.6.525H8.618a.581.581,0,0,1-.6-.525ZM22.829,35.5H4.483a1.913,1.913,0,0,1-1.955-1.8V9.475a1.844,1.844,0,0,1,1.88-1.8h2.03v1.05A2.037,2.037,0,0,0,8.543,10.75H18.693A2.084,2.084,0,0,0,20.8,8.725V7.675h2.03a1.844,1.844,0,0,1,1.88,1.8v3.3a6.419,6.419,0,0,0-1.729-.3,9.608,9.608,0,0,0-7.143,2.175H6.814a.75.75,0,1,0,0,1.5h7.594a10.352,10.352,0,0,0-1.278,2.175H6.889a.75.75,0,1,0,0,1.5h5.865a8.434,8.434,0,0,0-.226,1.35V22H6.889a.75.75,0,1,0,0,1.5h5.639a11.446,11.446,0,0,0,.526,2.175H6.889a.75.75,0,1,0,0,1.5h6.917a7.837,7.837,0,0,0,1.729,2.1H6.889a.75.75,0,1,0,0,1.5h10.9a9.933,9.933,0,0,0,3.308.975,9.832,9.832,0,0,0,3.609-.3v2.325A1.833,1.833,0,0,1,22.829,35.5Zm12.181-.6a2.047,2.047,0,0,1-2.932,0l-4.812-4.725A9.093,9.093,0,0,0,30.2,27.25l4.737,4.725A1.975,1.975,0,0,1,35.009,34.9Z" transform="translate(-1.097 -1)" fill="#52c2a9"/><g transform="translate(16.169 16.202)"><g transform="translate(0 0)"><path d="M38.588,22.925a.991.991,0,0,1-.462-.114L36.1,21.744l-2.028,1.067a.992.992,0,0,1-1.441-1.046l.388-2.259-1.64-1.6a.99.99,0,0,1,.549-1.691l2.267-.329,1.014-2.054a.982.982,0,0,1,.889-.552h0a.987.987,0,0,1,.889.552L38,15.886l2.267.329a.99.99,0,0,1,.549,1.691l-1.64,1.6.388,2.259a.991.991,0,0,1-.4.971A.958.958,0,0,1,38.588,22.925ZM36.1,20.675a.975.975,0,0,1,.462.114L38.5,21.805l-.369-2.155a.987.987,0,0,1,.287-.879l1.566-1.526-2.163-.316a.989.989,0,0,1-.746-.541L36.1,14.427l-.969,1.961a.992.992,0,0,1-.748.541l-2.163.313,1.566,1.526a1,1,0,0,1,.287.879L33.7,21.8l1.935-1.017A1.013,1.013,0,0,1,36.1,20.675Zm4.019-3.408Z" transform="translate(-31.076 -13.28)" fill="#52c2a9"/></g></g></svg>