<svg xmlns="http://www.w3.org/2000/svg" width="36" height="36" viewBox="0 0 36 36"><g transform="translate(-43 -228)"><g transform="translate(43 228)"><path d="M31.276,12.355Z" transform="translate(-7.728 -3.065)" fill="#ffab31"/><path d="M25.323,21.9H17.774v2.323H5V19H25.323Z" transform="translate(-2.677 -8.548)" fill="#f1f0ee"/><path d="M5,19H6.161v1.161H5Z" transform="translate(-2.677 -8.548)" fill="#cecbcb"/><path d="M9,19H29.323v1.161H9Z" transform="translate(-6.677 -8.548)" fill="#ffab31"/><path d="M5,23H25.323v1.161H5Z" transform="translate(-2.677 -10.226)" fill="#ffab31"/><path d="M5,27H17.774v1.161H5Z" transform="translate(-2.677 -11.903)" fill="#ffab31"/><path d="M27,9h1.161v1.161H27Z" transform="translate(-11.903 -4.355)" fill="#ffab31"/><path d="M23,9h1.161v1.161H23Z" transform="translate(-10.226 -4.355)" fill="#ffab31"/><path d="M19,9h1.161v1.161H19Z" transform="translate(-8.548 -4.355)" fill="#ffab31"/><path d="M42,57h1.161v1.161H42Z" transform="translate(-18.194 -24.484)" fill="#ffab31"/><path d="M38,57h1.161v1.161H38Z" transform="translate(-16.516 -24.484)" fill="#ffab31"/><path d="M34,57h1.161v1.161H34Z" transform="translate(-14.839 -24.484)" fill="#ffab31"/><path d="M32.1,17.158,33.935,9.7a4.337,4.337,0,0,0-1.4-4.463,5.635,5.635,0,0,0-4.248-1.3V1H7.147L1,7.147V37H28.29V32.334c.193.01.384.021.581.021,4.483,0,8.129-2.6,8.129-5.806V22.484C37,20.155,35.054,18.067,32.1,17.158Zm3.737,5.326c0,2.561-3.126,4.645-6.968,4.645S21.9,25.045,21.9,22.484c0-1.779,1.566-3.4,3.955-4.175a11.071,11.071,0,0,1,.109,1.519v2.213l.061.123a3.089,3.089,0,0,0,2.842,1.482,3.087,3.087,0,0,0,2.842-1.482l.061-.123V19.827a11.084,11.084,0,0,1,.109-1.519C34.273,19.081,35.839,20.7,35.839,22.484ZM31.773,6.113A3.156,3.156,0,0,1,32.814,9.4l-1.848,7.509a12.213,12.213,0,0,0-.353,2.913v1.907a2.067,2.067,0,0,1-1.742.749,2.069,2.069,0,0,1-1.742-.747V19.827a12.225,12.225,0,0,0-.353-2.914L24.928,9.4l-.005-.02a3.147,3.147,0,0,1,1.046-3.271,4.531,4.531,0,0,1,5.8,0ZM6.806,2.982V6.806H2.982ZM27.129,35.839H2.161V7.968H7.968V2.161H27.129V4.178A5.3,5.3,0,0,0,25.2,5.24a4.339,4.339,0,0,0-1.4,4.452l1.837,7.466c-2.952.909-4.9,3-4.9,5.326v4.065c0,2.774,2.739,5.1,6.387,5.669Zm8.71-9.29c0,2.561-3.126,4.645-6.968,4.645S21.9,29.11,21.9,26.548V25.459a9.137,9.137,0,0,0,6.968,2.831,9.137,9.137,0,0,0,6.968-2.831Z" transform="translate(-1 -1)" fill="#ffab31"/><path d="M.7-7.29H8.613v.016a12.271,12.271,0,0,1-.79,1.152H5.709A2.761,2.761,0,0,1,6.3-4.88H8.555q.041.008.041.033Q7.84-3.712,7.823-3.712H6.359A3.358,3.358,0,0,1,5.8-2.306,3.437,3.437,0,0,1,4.508-1.228a5.106,5.106,0,0,1-2.2.551v.016q0,.082,4.762,5.651h-2.1Q.33-.414.33-.438V-1.532l.016-.041a7.033,7.033,0,0,0,.962.058q2.6,0,3.233-1.686a1.361,1.361,0,0,0,.1-.51h-4.7A.029.029,0,0,1-.1-3.745Q.684-4.88.7-4.88H4.434V-4.9A2.19,2.19,0,0,0,3.192-5.908a3.877,3.877,0,0,0-1.184-.214H-.081v-.041Q.676-7.29.7-7.29Z" transform="translate(4.742 27.372)" fill="#ffab31"/></g></g></svg>