<svg xmlns="http://www.w3.org/2000/svg" width="29.023" height="39" viewBox="0 0 29.023 39"><g transform="translate(-18 -959.362)"><path d="M32.512,959.362a7.709,7.709,0,1,0,7.709,7.709A7.723,7.723,0,0,0,32.512,959.362Zm0,1.814a5.9,5.9,0,1,1-5.9,5.9A5.882,5.882,0,0,1,32.512,961.176Zm0,15.419a18.28,18.28,0,0,0-10.133,2.834C19.745,981.2,18,983.741,18,986.571v10.884a.943.943,0,0,0,.907.907H46.116a.943.943,0,0,0,.907-.907V986.571c0-2.83-1.745-5.371-4.379-7.142A18.279,18.279,0,0,0,32.512,976.594Zm0,1.814c.417,0,.827.016,1.233.043l-.6,2.678H31.874l-.6-2.678C31.685,978.425,32.095,978.408,32.512,978.408Zm-3.033.255.765,3.4L28.9,990.978a.922.922,0,0,0,.255.765l2.721,2.721a.942.942,0,0,0,1.275,0l2.721-2.721a.921.921,0,0,0,.255-.765l-1.346-8.916.765-3.4a15.451,15.451,0,0,1,6.094,2.282c2.284,1.536,3.571,3.543,3.571,5.626v9.977h-25.4v-9.977c0-2.083,1.287-4.091,3.571-5.626a15.453,15.453,0,0,1,6.094-2.282Zm2.452,4.28h1.162l1.19,7.823-1.771,1.771-1.771-1.771Z" transform="translate(0 0)" fill="#f54040"/></g></svg>