<svg xmlns="http://www.w3.org/2000/svg" width="36" height="36" viewBox="0 0 36 36"><g transform="translate(-46 -156.639)"><path d="M24.412,36H.666A.639.639,0,0,1,0,35.393V.607A.639.639,0,0,1,.666,0H24.412a.639.639,0,0,1,.666.607V3.861H23.746V1.472H1.355L1.331,34.611H23.746V23.862h1.331V35.394A.639.639,0,0,1,24.412,36Z" transform="translate(46 156.639)" fill="#af7ece"/><path d="M49.1,48.882a3.349,3.349,0,1,1,3.349-3.348A3.352,3.352,0,0,1,49.1,48.882Zm0-5.122a1.773,1.773,0,1,0,1.773,1.774A1.775,1.775,0,0,0,49.1,43.759Z" transform="translate(7.056 119.889)" fill="#af7ece"/><path d="M52.4,57.6a.787.787,0,0,1-.788-.788V55.58a2.793,2.793,0,0,0-5.586,0v1.237a.788.788,0,0,1-1.575,0V55.58a4.369,4.369,0,0,1,8.737,0v1.237A.787.787,0,0,1,52.4,57.6Z" transform="translate(7.349 117.972)" fill="#af7ece"/><path d="M45.992,71.7H31.253c-.227,0-.411-.3-.411-.674s.184-.674.411-.674h14.74c.227,0,.411.3.411.674S46.219,71.7,45.992,71.7Z" transform="translate(20.097 109.669)" fill="#af7ece"/><path d="M45.992,77.026H31.253c-.227,0-.411-.3-.411-.674s.184-.674.411-.674h14.74c.227,0,.411.3.411.674S46.219,77.026,45.992,77.026Z" transform="translate(20.097 109.41)" fill="#af7ece"/><path d="M6.991,1.513H.189C.085,1.513,0,1.174,0,.756S.085,0,.189,0h6.8c.1,0,.189.339.189.756S7.1,1.513,6.991,1.513Z" transform="translate(76.5 175.431) rotate(40)" fill="#af7ece"/><path d="M8.312,16.625a8.312,8.312,0,1,1,8.312-8.312A8.322,8.322,0,0,1,8.312,16.625Zm0-15.313a7,7,0,1,0,7,7A7.008,7.008,0,0,0,8.312,1.312Z" transform="translate(62.078 162.375)" fill="#af7ece"/></g></svg>